<?xml version="1.0" encoding="UTF-8"?>
<svg version="1.1" xmlns="http://www.w3.org/2000/svg" width="512" height="512">
<path d="M0 0 C0.77813952 -0.00438225 1.55627904 -0.00876451 2.35799855 -0.01327956 C4.97965014 -0.02669235 7.60126811 -0.03285194 10.22294617 -0.03897095 C12.09687961 -0.0468699 13.97081152 -0.05513872 15.84474182 -0.06375122 C22.01075279 -0.08999306 28.17677064 -0.10528 34.34281921 -0.11953735 C36.46316724 -0.12489595 38.58351522 -0.13027346 40.70386314 -0.13566971 C49.52162366 -0.15730069 58.33938232 -0.17603877 67.15716267 -0.1872921 C79.80661146 -0.20354011 92.45575349 -0.23673615 105.10508662 -0.29369295 C113.99260509 -0.33235112 122.88004136 -0.35191984 131.76764172 -0.35721266 C137.07926606 -0.36087149 142.39056339 -0.37294924 147.70209694 -0.4053154 C152.69835327 -0.4353238 157.69408347 -0.44173371 162.69041061 -0.42993164 C164.52503479 -0.42971031 166.35968288 -0.43806472 168.1942234 -0.45558548 C170.69782806 -0.47819627 173.19951182 -0.47002121 175.703125 -0.45410156 C176.43036768 -0.46798365 177.15761036 -0.48186574 177.90689069 -0.49616849 C181.70259519 -0.43663591 183.45549516 0.08948362 186.53197002 2.37940025 C188.54203796 5.15390015 188.54203796 5.15390015 188.54203796 10.15390015 C195.14203796 10.15390015 201.74203796 10.15390015 208.54203796 10.15390015 C208.54203796 8.50390015 208.54203796 6.85390015 208.54203796 5.15390015 C210.61904254 2.03839329 212.19171686 0.43060529 215.92485046 -0.3343811 C220.49554889 -0.57314893 222.8520157 -0.32911544 226.66703796 2.34140015 C228.54203796 5.15390015 228.54203796 5.15390015 228.54203796 10.15390015 C235.14203796 10.15390015 241.74203796 10.15390015 248.54203796 10.15390015 C248.54203796 8.50390015 248.54203796 6.85390015 248.54203796 5.15390015 C251.17019844 1.53017045 252.68371915 0.30390935 257.12622833 -0.47251225 C258.53749924 -0.49859206 259.94943964 -0.49732277 261.36076355 -0.47428894 C262.14146635 -0.48138333 262.92216914 -0.48847772 263.7265296 -0.49578708 C266.33936315 -0.51337231 268.95071011 -0.49526061 271.56352234 -0.47720337 C273.43790362 -0.48234201 275.31228007 -0.48962286 277.18664551 -0.49888611 C282.2755475 -0.51741538 287.3639262 -0.50445182 292.45280647 -0.48479581 C297.7769495 -0.46842066 303.10105908 -0.47722063 308.42521667 -0.48231506 C317.36642321 -0.48683728 326.30742063 -0.47095816 335.24858093 -0.44302368 C345.58754823 -0.41097127 355.92613835 -0.41098714 366.26513243 -0.42823845 C376.20866344 -0.44409915 386.1520561 -0.4373729 396.09558105 -0.42030144 C400.32835571 -0.41342669 404.56101961 -0.41446776 408.79379272 -0.42184639 C413.777793 -0.42950436 418.76136374 -0.41739892 423.74529076 -0.38999748 C425.57504692 -0.38310746 427.40484315 -0.38302228 429.23459816 -0.39021301 C431.73131648 -0.39889463 434.22670529 -0.38297463 436.72331238 -0.36076355 C437.4485087 -0.36900432 438.17370502 -0.37724508 438.92087698 -0.38573557 C443.7221271 -0.30682648 446.16921231 0.75016706 449.54203796 4.15390015 C451.00884499 7.0875142 450.65995675 9.66967363 450.65315247 12.94628906 C450.65315148 13.6528915 450.6531505 14.35949393 450.65314949 15.08750856 C450.65211221 17.4672521 450.64408632 19.84692383 450.63627625 22.22665405 C450.63439792 23.92823233 450.63305254 25.62981128 450.63220215 27.33139038 C450.6299148 31.0025759 450.62518648 34.67374779 450.61900711 38.34492874 C450.61061559 44.15256294 450.61602873 49.9601308 450.62501526 55.76776123 C450.62648626 56.74741148 450.62795727 57.72706172 450.62947285 58.73639834 C450.63254377 60.74007296 450.6356638 62.74374751 450.63883185 64.74742198 C450.66002373 78.2714984 450.67374248 91.79535963 450.64164734 105.31942749 C450.62011048 114.43668605 450.62327674 123.55356496 450.65505588 132.67079866 C450.67090305 137.49581863 450.67415207 142.32011285 450.64729691 147.14509964 C450.62223667 151.68774833 450.62984628 156.22918274 450.66217613 160.77177429 C450.66825698 162.43580022 450.66245953 164.09992007 450.64368248 165.76385117 C450.30379211 176.10854024 450.30379211 176.10854024 454.95753479 185.01556396 C456.13747198 186.07845055 457.33086602 187.12674768 458.54203796 188.15390015 C463.36369251 194.79744525 467.01782695 201.69249519 469.91703796 209.34140015 C470.15559509 209.96981812 470.39415222 210.59823608 470.63993835 211.24569702 C474.18852323 221.16685806 474.84300735 230.76103987 474.84843445 241.2449646 C474.85607164 242.63732845 474.86450177 244.02968815 474.87365723 245.42204285 C474.89543597 249.17374128 474.9043767 252.92535835 474.90948367 256.67711282 C474.91314239 259.02402649 474.91938972 261.37091929 474.92648506 263.71782494 C474.95090674 271.91275332 474.96401885 280.10761889 474.96757507 288.30258179 C474.97122059 295.93274107 475.00120676 303.56250069 475.04297966 311.19253761 C475.07765808 317.75753285 475.09312296 324.32239516 475.09382111 330.88748139 C475.09461376 334.80284958 475.10334917 338.71780825 475.13181877 342.63308144 C475.15796309 346.3097179 475.16022596 349.9856037 475.14416313 353.66229057 C475.14148107 355.65203434 475.16354892 357.64176331 475.18635559 359.63137817 C475.11479303 368.33318593 475.11479303 368.33318593 472.25457764 372.43165588 C468.03907957 375.1081577 464.99650582 375.28008675 460.05839539 375.31503296 C458.41099617 375.32944427 458.41099617 375.32944427 456.73031616 375.34414673 C454.95682549 375.35052155 454.95682549 375.35052155 453.14750671 375.35702515 C451.3164312 375.36557526 451.3164312 375.36557526 449.44836426 375.3742981 C446.86525844 375.38374367 444.2821406 375.39028032 441.69902039 375.39413452 C437.75520214 375.40383701 433.81190573 375.43486438 429.86820984 375.46640015 C427.35714522 375.47293074 424.84607688 375.47818099 422.33500671 375.48202515 C420.57062508 375.50054535 420.57062508 375.50054535 418.77059937 375.5194397 C412.61872136 375.50277272 407.89899181 375.32019686 402.54203796 372.15390015 C399.95081499 367.95433188 399.35929187 364.19341404 398.66703796 359.34140015 C397.21126862 349.87298162 393.23255938 342.03047791 385.54203796 336.15390015 C375.56959184 329.74425956 364.79431177 328.84763991 353.18315125 328.91439819 C351.5688195 328.91137695 351.5688195 328.91137695 349.921875 328.90829468 C347.60628134 328.90477329 345.29067801 328.90548619 342.97508621 328.91007042 C339.30978138 328.91569963 335.64478869 328.90644845 331.97950745 328.89286804 C321.56609051 328.8558721 311.15278456 328.83724583 300.73930359 328.84848022 C294.35279133 328.85432387 287.96672458 328.83611739 281.58030319 328.80259132 C279.15062072 328.79463357 276.72088976 328.79591929 274.2912178 328.80661583 C270.90183461 328.82090851 267.5138623 328.80471028 264.1245575 328.78158569 C263.12188339 328.79335342 262.11920929 328.80512115 261.08615112 328.81724548 C256.49051612 328.75564978 254.21982167 328.6312956 250.38063049 325.9271698 C248.54203796 323.15390015 248.54203796 323.15390015 248.54203796 318.15390015 C241.94203796 318.15390015 235.34203796 318.15390015 228.54203796 318.15390015 C228.54203796 319.80390015 228.54203796 321.45390015 228.54203796 323.15390015 C225.46122797 326.61981139 223.22994027 328.46336826 218.54203796 328.77890015 C213.85413566 328.46336826 211.62284796 326.61981139 208.54203796 323.15390015 C208.54203796 321.50390015 208.54203796 319.85390015 208.54203796 318.15390015 C201.94203796 318.15390015 195.34203796 318.15390015 188.54203796 318.15390015 C188.54203796 319.80390015 188.54203796 321.45390015 188.54203796 323.15390015 C186.54429519 326.16722655 184.9654564 327.8619061 181.33890915 328.60584068 C178.5339632 328.797954 175.77093787 328.81458149 172.95951843 328.78158569 C171.89381119 328.78885681 170.82810394 328.79612793 169.73010254 328.80361938 C166.2061398 328.82222347 162.68318893 328.80613301 159.15922546 328.7906189 C156.70406692 328.79866009 154.24891535 328.8091788 151.79377747 328.82206726 C145.32392984 328.85065126 138.85440217 328.85118769 132.38450623 328.84420776 C122.05067393 328.83689493 111.71694626 328.86836821 101.38319778 328.90665627 C97.78330783 328.91546815 94.18364477 328.91021822 90.58375549 328.90309143 C88.35614461 328.90647902 86.12853424 328.9102292 83.90092468 328.91439819 C82.91039597 328.90870316 81.91986725 328.90300812 80.89932251 328.8971405 C68.65368175 328.94833613 57.04387264 330.81164225 47.72953796 339.34140015 C41.28215122 346.44111073 38.91747965 354.20280895 37.79301453 363.53256226 C37.07413451 368.5877315 35.54477748 371.01645873 31.54203796 374.15390015 C28.37656757 375.23040009 25.38531745 375.29148887 22.05839539 375.31503296 C20.41099617 375.32944427 20.41099617 375.32944427 18.73031616 375.34414673 C16.95682549 375.35052155 16.95682549 375.35052155 15.14750671 375.35702515 C13.3164312 375.36557526 13.3164312 375.36557526 11.44836426 375.3742981 C8.86525844 375.38374367 6.2821406 375.39028032 3.69902039 375.39413452 C-0.24479786 375.40383701 -4.18809427 375.43486438 -8.13179016 375.46640015 C-10.64285478 375.47293074 -13.15392312 375.47818099 -15.66499329 375.48202515 C-16.84124771 375.49437195 -18.01750214 375.50671875 -19.22940063 375.5194397 C-25.3848665 375.502763 -30.09667899 375.31702472 -35.45796204 372.15390015 C-37.73475799 368.73870622 -37.71224891 367.52249948 -37.72538757 363.50993347 C-37.73391754 362.33412216 -37.74244751 361.15831085 -37.75123596 359.9468689 C-37.75032959 358.65498657 -37.74942322 357.36310425 -37.74848938 356.03207397 C-37.75447381 354.65859105 -37.76127916 353.28511148 -37.7688446 351.91163635 C-37.78653925 348.17530374 -37.79120196 344.43906273 -37.79247618 340.70269227 C-37.79389852 338.36259846 -37.79817012 336.02252785 -37.80347061 333.6824398 C-37.82199548 325.50079247 -37.8301398 317.31921033 -37.8285675 309.13754272 C-37.82737146 301.54358904 -37.84836111 293.94992207 -37.88005483 286.35604078 C-37.90635924 279.817342 -37.91692863 273.27873586 -37.91565669 266.73998469 C-37.91515038 262.84378959 -37.9206452 258.94784816 -37.94201279 255.05170631 C-38.10084239 223.92678048 -38.10084239 223.92678048 -33.45796204 211.15390015 C-33.0693399 210.05072952 -32.68071777 208.9475589 -32.28031921 207.81095886 C-29.52196287 200.33331614 -25.23529904 191.06395381 -18.95945168 185.92743111 C-15.2766995 182.66381833 -14.09825839 179.73196015 -13.78460574 174.81224132 C-13.67645931 171.02793035 -13.70335685 167.25103957 -13.74848938 163.46591187 C-13.74686653 161.75872352 -13.74254945 160.05153592 -13.73574829 158.34436035 C-13.72674553 154.67682598 -13.73642181 151.0099895 -13.76064682 147.34252548 C-13.79853745 141.54358764 -13.79287896 135.74518672 -13.78111267 129.94616699 C-13.76428009 118.68681001 -13.79235022 107.42777746 -13.82453156 96.16847229 C-13.86303519 81.8294389 -13.87914183 67.49045798 -13.85932696 53.15138447 C-13.8527927 47.38635206 -13.86709891 41.62185646 -13.89777732 35.85690665 C-13.91312678 32.27297929 -13.91220148 28.68918683 -13.90703392 25.10523605 C-13.90809603 23.44315166 -13.91605532 21.78105525 -13.93140984 20.11904144 C-13.95148316 17.85019733 -13.94701388 15.58266074 -13.93656921 13.31378174 C-13.94067495 12.0443466 -13.94478069 10.77491146 -13.94901085 9.46700859 C-13.37081314 5.56590619 -12.20544817 3.92750972 -9.45796204 1.15390015 C-6.43762775 -0.356267 -3.31357415 0.00224728 0 0 Z " fill="#010101" transform="translate(37.45796203613281,68.84609985351563)"/>
<path d="M0 0 C3.73313361 0.76498639 5.30580793 2.37277439 7.3828125 5.48828125 C7.3828125 7.13828125 7.3828125 8.78828125 7.3828125 10.48828125 C13.9828125 10.48828125 20.5828125 10.48828125 27.3828125 10.48828125 C28.3728125 12.46828125 29.3628125 14.44828125 30.3828125 16.48828125 C34.30760998 19.73413806 37.59316206 19.86899628 42.58979797 19.88700867 C43.30460821 19.89365549 44.01941844 19.90030232 44.75588959 19.90715057 C47.14510406 19.92576602 49.5338171 19.92317634 51.9230957 19.9206543 C53.63810431 19.92967237 55.35310647 19.9399997 57.06809998 19.95153809 C61.72056508 19.97912898 66.37290795 19.98839545 71.02544427 19.99439216 C75.8888536 20.00377037 80.75217144 20.02997332 85.61552429 20.05439758 C94.82349115 20.09808146 104.03144026 20.12661684 113.23947924 20.14972097 C125.68334334 20.18181869 138.12710174 20.23729426 150.57088566 20.29146671 C170.17482988 20.37619317 189.77873257 20.42966507 209.3828125 20.48828125 C209.3828125 68.00828125 209.3828125 115.52828125 209.3828125 164.48828125 C205.34235873 163.6801905 202.42209398 162.74931121 198.6953125 161.17578125 C193.17618044 158.99133198 187.7281858 157.54494207 181.92578125 156.3203125 C180.68749573 156.05232849 180.68749573 156.05232849 179.42419434 155.77893066 C177.41140707 155.34402875 175.397247 154.91548835 173.3828125 154.48828125 C173.36299316 153.43253906 173.34317383 152.37679687 173.32275391 151.2890625 C175.57839297 112.0719547 175.57839297 112.0719547 163.3828125 77.26171875 C156.68177423 71.07804005 150.57954571 71.04033312 141.80175781 71.33007812 C138.3627585 71.55499451 134.98444444 72.06651325 131.57592773 72.56469727 C103.6402413 76.58530415 73.69136983 76.1464938 45.80078125 71.94921875 C33.78939067 70.15001324 33.78939067 70.15001324 22.7578125 73.98828125 C10.36600938 85.41029109 9.81093822 103.69104345 9.15136719 119.47705078 C8.7315704 131.14337422 8.54931188 142.81610052 8.3828125 154.48828125 C1.1228125 154.48828125 -6.1371875 154.48828125 -13.6171875 154.48828125 C-13.67326172 150.55728516 -13.67326172 150.55728516 -13.73046875 146.546875 C-13.98394451 123.77889147 -13.98394451 123.77889147 -15.9296875 101.11328125 C-16.08787964 99.82828735 -16.08787964 99.82828735 -16.24926758 98.51733398 C-17.79110599 88.00979501 -21.58861165 79.04647275 -30.1796875 72.55078125 C-38.15179205 70.08667621 -47.02695512 71.40805794 -55.17529297 72.55615234 C-70.09380699 74.61620616 -84.95340395 74.82653441 -99.9921875 74.86328125 C-101.04570404 74.87077393 -102.09922058 74.8782666 -103.18466187 74.88598633 C-116.31148367 74.96257445 -128.97047887 74.21379225 -141.9440918 72.17407227 C-153.01115026 70.40961689 -153.01115026 70.40961689 -163.6171875 73.11328125 C-171.20957002 79.12391741 -175.21158289 86.68505974 -176.41015625 96.34375 C-176.56105245 98.11955295 -176.69139498 99.89718332 -176.8046875 101.67578125 C-176.87800293 102.65740234 -176.95131836 103.63902344 -177.02685547 104.65039062 C-178.14319267 121.22886827 -178.30538868 137.8792906 -178.6171875 154.48828125 C-179.3920752 154.60437744 -180.16696289 154.72047363 -180.96533203 154.84008789 C-187.02225626 155.7906066 -192.69775662 156.92576801 -198.4921875 158.92578125 C-199.70648438 159.33699219 -200.92078125 159.74820313 -202.171875 160.171875 C-205.63876097 161.42668999 -205.63876097 161.42668999 -208.875 163.1484375 C-211.6171875 164.48828125 -211.6171875 164.48828125 -214.6171875 164.48828125 C-214.6171875 116.96828125 -214.6171875 69.44828125 -214.6171875 20.48828125 C-202.04238281 20.4625 -189.46757812 20.43671875 -176.51171875 20.41015625 C-168.55922908 20.38499859 -160.60676382 20.35883783 -152.65429688 20.328125 C-140.0236832 20.2795325 -127.39315075 20.23510958 -114.76245117 20.21728516 C-105.56434738 20.20428597 -96.36640821 20.17736569 -87.16839713 20.13366818 C-82.29725752 20.11101435 -77.42632125 20.09537292 -72.55512428 20.0963974 C-67.97088682 20.0971417 -63.38709954 20.0792838 -58.80297852 20.04711342 C-57.11997721 20.03858955 -55.43692555 20.03688132 -53.75391197 20.04247856 C-51.45612565 20.0491029 -49.15977824 20.03123778 -46.86213684 20.00726318 C-45.57623563 20.00357601 -44.29033442 19.99988884 -42.9654665 19.99608994 C-38.97958875 19.39158137 -37.38161752 18.38999538 -34.6171875 15.48828125 C-33.9571875 13.83828125 -33.2971875 12.18828125 -32.6171875 10.48828125 C-26.0171875 10.48828125 -19.4171875 10.48828125 -12.6171875 10.48828125 C-12.6171875 8.83828125 -12.6171875 7.18828125 -12.6171875 5.48828125 C-9.19574302 0.35611453 -5.83418939 -0.30477109 0 0 Z " fill="#FCC76A" transform="translate(258.6171875,68.51171875)"/>
<path d="M0 0 C155.76 0 311.52 0 472 0 C472 32.34 472 64.68 472 98 C460.45 98 448.9 98 437 98 C436.34 96.02 435.68 94.04 435 92 C430.11296014 77.63997766 420.98677119 65.84087105 407.49043274 58.64549255 C392.78360373 51.71226122 377.13718663 52.39388924 361.23828125 52.43359375 C358.67237626 52.42835038 356.1064732 52.4220713 353.54057312 52.41481018 C348.19597203 52.40446135 342.85164833 52.40855917 337.50708008 52.42358398 C331.33883773 52.44059998 325.17129824 52.42451177 319.00313216 52.3923611 C313.03686825 52.36245054 307.07082322 52.36047496 301.10448265 52.3698597 C298.57709013 52.37067967 296.04968294 52.36380755 293.52233315 52.34908867 C290.00174642 52.33170554 286.48268301 52.34612946 282.9621582 52.36889648 C281.39979935 52.35135818 281.39979935 52.35135818 279.80587769 52.33346558 C275.10158852 52.39548719 272.75412225 52.44709493 268.87736511 55.28944397 C266.74201338 58.03178918 266.74201338 58.03178918 266 62 C259.4 62 252.8 62 246 62 C246 63.65 246 65.3 246 67 C242.91919001 70.46591124 240.68790231 72.30946811 236 72.625 C231.31209769 72.30946811 229.08080999 70.46591124 226 67 C226 65.35 226 63.7 226 62 C219.4 62 212.8 62 206 62 C204.94227889 59.35569723 203.90061707 56.70185122 203 54 C200.12522463 53.04174154 198.31543249 52.87020161 195.32963562 52.85955811 C194.369702 52.85384796 193.40976837 52.84813782 192.42074585 52.84225464 C191.36884064 52.84113678 190.31693542 52.84001892 189.2331543 52.83886719 C188.12379013 52.83390228 187.01442596 52.82893738 185.8714447 52.82382202 C182.18902978 52.80918028 178.50665804 52.80239236 174.82421875 52.796875 C172.26129658 52.79112188 169.69837442 52.78536417 167.13545227 52.77960205 C162.43958773 52.77042912 157.74374039 52.76413342 153.04786843 52.7611053 C146.16725985 52.75664298 139.28685175 52.73918388 132.40630406 52.7101047 C126.42571596 52.68571968 120.4452212 52.67815278 114.46457863 52.67642975 C111.93345873 52.67341798 109.40233936 52.66543983 106.87125206 52.65224457 C85.34773778 52.54811642 67.73475062 53.08248196 51.2890625 68.640625 C43.68285 76.48047543 38.3790278 84.40211954 36.39453125 95.21484375 C36 97 36 97 35 98 C23.45 98 11.9 98 0 98 C0 65.66 0 33.32 0 0 Z " fill="#FDDBA1" transform="translate(20,325)"/>
<path d="M0 0 C1.48399508 -0.00517483 2.96798738 -0.01120323 4.45197588 -0.0180068 C8.51287308 -0.03406538 12.57369942 -0.03772137 16.6346246 -0.03920174 C21.02137383 -0.04291717 25.4080869 -0.05801907 29.79481506 -0.07147217 C39.37989071 -0.09858282 48.96494957 -0.11067975 58.55005717 -0.11949348 C64.54156963 -0.12502833 70.53307569 -0.1335049 76.52458382 -0.14250183 C93.13175392 -0.16688082 109.73891892 -0.18748007 126.34610653 -0.19425201 C127.40806998 -0.19469115 128.47003344 -0.19513028 129.56417761 -0.19558272 C130.62860266 -0.19601927 131.69302772 -0.19645583 132.78970808 -0.19690561 C134.94643971 -0.19779253 137.10317133 -0.19868565 139.25990295 -0.19958496 C140.32970379 -0.20002782 141.39950462 -0.20047068 142.50172365 -0.20092696 C159.82259335 -0.20881705 177.14329447 -0.24370994 194.4640991 -0.29030401 C212.27121304 -0.33781731 230.07824254 -0.36265966 247.88542086 -0.36498785 C257.8737393 -0.36681664 267.86183808 -0.37820162 277.85009575 -0.41462708 C286.35806655 -0.44554604 294.86574982 -0.45560173 303.37376618 -0.43915087 C307.70832078 -0.43137845 312.04229742 -0.43299439 316.37677956 -0.46126556 C342.40330935 -0.62122291 363.10328927 1.21916184 383.05262756 19.90588379 C394.58170425 31.90875814 399.85000216 45.95825435 401.33387756 62.28088379 C245.57387756 62.28088379 89.81387756 62.28088379 -70.66612244 62.28088379 C-68.98253119 43.76138011 -62.29990263 29.08712042 -48.66612244 16.28088379 C-33.78688773 4.30491439 -18.92536895 -0.02652314 0 0 Z " fill="#BFF3F0" transform="translate(90.66612243652344,242.7191162109375)"/>
<path d="M0 0 C5.35652184 -0.21331282 10.40638101 -0.02986915 15.6875 0.9375 C29.77028641 3.47567662 44.18757427 3.21480325 58.45019531 3.24023438 C61.7300757 3.24994103 65.0093281 3.28106798 68.2890625 3.3125 C79.81317225 3.36868816 90.79356416 2.81051367 102.12719727 0.66577148 C106.86189232 -0.14816746 111.21425098 -0.23536471 116 0 C124.85038599 16.20246057 120 50.21007058 120 64 C78.75 64 37.5 64 -5 64 C-5 10 -5 10 0 0 Z " fill="#38DAD0" transform="translate(292,159)"/>
<path d="M0 0 C5.23149013 -0.1428419 10.07717601 0.22281684 15.24029541 1.04818726 C28.60233225 3.18273729 41.74375017 3.4686483 55.25 3.375 C56.36364929 3.37234131 57.47729858 3.36968262 58.62469482 3.36694336 C74.17482949 3.32339885 89.26446996 2.66896473 104.64160156 0.28125 C108.44354617 -0.17214961 112.17553594 -0.0930904 116 0 C123.76149185 20.81490995 121 41.68790507 121 64 C79.75 64 38.5 64 -4 64 C-4 7.32282664 -4 7.32282664 0 0 Z " fill="#38DBD0" transform="translate(104,159)"/>
<path d="M0 0 C4.34011432 3.41668574 5.73140131 5.92795299 6.4375 11.375 C6 15 6 15 3.5 17.9375 C0.39849626 20.13927506 -2.25412361 20.74922582 -6.03125 20.48046875 C-9.83460422 19.55226921 -11.44635103 18.00053754 -14 15 C-14.84695311 9.82417546 -13.76326353 6.40075303 -11 2 C-7.32705125 -0.4486325 -4.26731035 -0.83183438 0 0 Z " fill="#040302" transform="translate(260,377)"/>
<path d="M0 0 C3.125 2 3.125 2 5 5 C5.74297224 9.68072512 5.74495371 12.55743109 2.9375 16.4375 C-0.56655537 19.49422915 -2.37720728 20.08254987 -7 20 C-10.64732163 18.42502021 -13.17551854 16.55293758 -15 13 C-15.61434888 8.16200259 -15.71401558 6.14242492 -13.125 2 C-8.73453283 -0.80989899 -5.07593299 -1.0151866 0 0 Z " fill="#030201" transform="translate(261,69)"/>
</svg>
