<svg xmlns="http://www.w3.org/2000/svg" version="1.1" xmlns:xlink="http://www.w3.org/1999/xlink"
    xmlns:svgjs="http://svgjs.dev/svgjs" viewBox="0 0 800 800">
    <defs>
        <linearGradient x1="50%" y1="0%" x2="50%" y2="100%" id="nnneon-grad">
            <stop stop-color="hsl(265, 55%, 30%)" stop-opacity="1" offset="0%"></stop>
            <stop stop-color="hsl(265, 55%, 60%)" stop-opacity="1" offset="100%"></stop>
        </linearGradient>
        <filter id="nnneon-filter" x="-100%" y="-100%" width="400%" height="400%"
            filterUnits="objectBoundingBox" primitiveUnits="userSpaceOnUse"
            color-interpolation-filters="sRGB">
            <feGaussianBlur stdDeviation="26 8" x="0%" y="0%" width="100%" height="100%"
                in="SourceGraphic" edgeMode="none" result="blur"></feGaussianBlur>
        </filter>
        <filter id="nnneon-filter2" x="-100%" y="-100%" width="400%" height="400%"
            filterUnits="objectBoundingBox" primitiveUnits="userSpaceOnUse"
            color-interpolation-filters="sRGB">
            <feGaussianBlur stdDeviation="16 17" x="0%" y="0%" width="100%" height="100%"
                in="SourceGraphic" edgeMode="none" result="blur"></feGaussianBlur>
        </filter>
    </defs>
    <g stroke-width="16" stroke="url(#nnneon-grad)" fill="none" transform="rotate(34, 400, 400)">
        <path
            d="M388.64546053815474 236.2368764973288C395.6716495571446 232.1810350015577 404.3283504428554 232.1810350015577 411.35453946184526 236.23801195127504L536.1454699633096 308.2859711985218C543.1716589822994 312.3418126942929 547.5000094251548 319.83921510094933 547.5000094251548 327.95203354643786V472.04795204093136C547.5000094251548 480.1607704864199 543.1716589822994 487.6581728930763 536.1454699633096 491.71514984279366L411.35453946184526 563.7631090900404C404.3283504428554 567.8189505858115 395.6716495571446 567.8189505858115 388.64546053815474 563.7619736360942L263.85453003669045 491.71401438884743C256.8283410177006 487.6581728930763 252.49999057484519 480.1607704864199 252.49999057484519 472.04795204093136V327.95203354643786C252.49999057484519 319.83921510094933 256.8283410177006 312.3418126942929 263.85453003669045 308.2848357445756L388.64546053815474 236.2368764973288Z "
            filter="url(#nnneon-filter)"></path>
        <path
            d="M388.64546053815474 236.2368764973288C395.6716495571446 232.1810350015577 404.3283504428554 232.1810350015577 411.35453946184526 236.23801195127504L536.1454699633096 308.2859711985218C543.1716589822994 312.3418126942929 547.5000094251548 319.83921510094933 547.5000094251548 327.95203354643786V472.04795204093136C547.5000094251548 480.1607704864199 543.1716589822994 487.6581728930763 536.1454699633096 491.71514984279366L411.35453946184526 563.7631090900404C404.3283504428554 567.8189505858115 395.6716495571446 567.8189505858115 388.64546053815474 563.7619736360942L263.85453003669045 491.71401438884743C256.8283410177006 487.6581728930763 252.49999057484519 480.1607704864199 252.49999057484519 472.04795204093136V327.95203354643786C252.49999057484519 319.83921510094933 256.8283410177006 312.3418126942929 263.85453003669045 308.2848357445756L388.64546053815474 236.2368764973288Z "
            filter="url(#nnneon-filter2)" opacity="0.22"></path>
        <path
            d="M388.64546053815474 236.2368764973288C395.6716495571446 232.1810350015577 404.3283504428554 232.1810350015577 411.35453946184526 236.23801195127504L536.1454699633096 308.2859711985218C543.1716589822994 312.3418126942929 547.5000094251548 319.83921510094933 547.5000094251548 327.95203354643786V472.04795204093136C547.5000094251548 480.1607704864199 543.1716589822994 487.6581728930763 536.1454699633096 491.71514984279366L411.35453946184526 563.7631090900404C404.3283504428554 567.8189505858115 395.6716495571446 567.8189505858115 388.64546053815474 563.7619736360942L263.85453003669045 491.71401438884743C256.8283410177006 487.6581728930763 252.49999057484519 480.1607704864199 252.49999057484519 472.04795204093136V327.95203354643786C252.49999057484519 319.83921510094933 256.8283410177006 312.3418126942929 263.85453003669045 308.2848357445756L388.64546053815474 236.2368764973288Z "
            filter="url(#nnneon-filter2)" opacity="0.22"></path>
        <path
            d="M388.64546053815474 236.2368764973288C395.6716495571446 232.1810350015577 404.3283504428554 232.1810350015577 411.35453946184526 236.23801195127504L536.1454699633096 308.2859711985218C543.1716589822994 312.3418126942929 547.5000094251548 319.83921510094933 547.5000094251548 327.95203354643786V472.04795204093136C547.5000094251548 480.1607704864199 543.1716589822994 487.6581728930763 536.1454699633096 491.71514984279366L411.35453946184526 563.7631090900404C404.3283504428554 567.8189505858115 395.6716495571446 567.8189505858115 388.64546053815474 563.7619736360942L263.85453003669045 491.71401438884743C256.8283410177006 487.6581728930763 252.49999057484519 480.1607704864199 252.49999057484519 472.04795204093136V327.95203354643786C252.49999057484519 319.83921510094933 256.8283410177006 312.3418126942929 263.85453003669045 308.2848357445756L388.64546053815474 236.2368764973288Z "></path>
    </g>
</svg>